<svg id="Layer_1" data-name="Layer 1" xmlns="http://www.w3.org/2000/svg" xmlns:xlink="http://www.w3.org/1999/xlink" viewBox="0 0 954.72 1023.63"><defs><style>.cls-1,.cls-2,.cls-7{isolation:isolate;}.cls-2,.cls-7{font-size:15px;}.cls-2{font-family:Roboto-Regular, Roboto;}.cls-3{letter-spacing:-0.01em;}.cls-4{letter-spacing:-0.01em;}.cls-5{fill:none;stroke:#000;stroke-miterlimit:10;stroke-width:0.5px;}.cls-6{letter-spacing:-0.01em;}.cls-7{font-family:Roboto-MediumItalic, Roboto;font-weight:500;font-style:italic;}.cls-8{letter-spacing:-0.01em;}.cls-9{letter-spacing:-0.01em;}</style></defs><g id="godzilladibu02.psd"><image id="godzilladibu02" class="cls-1" width="800" height="920" transform="matrix(1.08, 0.04, -0.04, 1.08, 32.31, 0)" xlink:href="BE620035A3644042.png"/></g><image class="cls-1" width="1083" height="971" transform="translate(696.32 178.84) scale(0.24)" xlink:href="BE620035A3644046.png"/><image class="cls-1" width="517" height="883" transform="translate(239.97 312.7) scale(0.24)" xlink:href="BE620035A3644041.png"/><image class="cls-1" width="733" height="800" transform="translate(258.32 176.68) scale(0.24)" xlink:href="BE620035A3644043.png"/><image class="cls-1" width="704" height="713" transform="translate(357.46 93.62) scale(0.24)" xlink:href="BE620035A3644040.png"/><image class="cls-1" width="554" height="546" transform="translate(460.49 65) scale(0.24)" xlink:href="BE620035A364404E.png"/><text class="cls-2" transform="translate(773.83 47.3)"><tspan class="cls-3" x="17.35" y="0"></tspan><tspan x="22.46" y="0"></tspan><tspan class="cls-4" x="38.84" y="0"></tspan><tspan x="43.95" y="0">Cerebro pequeño</tspan></text><line class="cls-5" x1="804.78" y1="197.96" x2="804.78" y2="219.96"/><text class="cls-2" transform="translate(784.53 194.39)">Aliento atómico</text><line class="cls-5" x1="626.48" y1="356.66" x2="727.28" y2="356.66"/><text class="cls-2" transform="translate(730.23 363.01)">corazón<tspan class="cls-6" x="29.88" y="0"></tspan><tspan x="37.3" y="0"></tspan></text><text class="cls-2" transform="translate(731.23 529.28)">Pulmones</text><text class="cls-7" transform="translate(731.23 546.78)">Puede <tspan class="cls-3" x="45.98" y="0">r</tspan><tspan x="51.11" y="0">espirar bajo el agua</tspan></text><path class="cls-5" d="M598.6,403.2s19.8,88.2,98,98.9" transform="translate(31.28 22.46)"/><path class="cls-5" d="M265.1,317.4s.7,25.1,24.1,27.7" transform="translate(31.28 22.46)"/><text class="cls-2" transform="translate(129.16 319.66)"><tspan class="cls-3" x="41.95" y="0"></tspan><tspan x="47.07" y="0">Descarga eléctrica</tspan></text><text class="cls-2" transform="translate(129.16 337.66)">a tr<tspan class="cls-8" x="22.28" y="0">a</tspan><tspan class="cls-9" x="30.42" y="0">v</tspan><tspan x="37.87" y="0">és de placas dorsales</tspan></text><text class="cls-7" transform="translate(57.29 640.65)">La textura de la piel</text><text class="cls-7" transform="translate(57.29 658.65)">fue inspirada</text><text class="cls-7" transform="translate(57.29 676.65)">en las cicatrices</text><text class="cls-7" transform="translate(57.29 694.65)">de queloides</text><text class="cls-7" transform="translate(57.29 712.65)">de los sobrevivientes<tspan class="cls-3" x="68.8" y="0"></tspan><tspan class="cls-9" x="73.92" y="0"></tspan><tspan x="81.68" y="0"></tspan></text><text class="cls-7" transform="translate(57.29 730.65)">de Hi<tspan class="cls-4" x="34.54" y="0">r</tspan><tspan x="39.66" y="0">oshima</tspan></text><text class="cls-2" transform="translate(57.29 602.67)">Escamas de carbono</text><text class="cls-2" transform="translate(57.29 620.67)">que cubren el cuerpo <tspan class="cls-3" x="53.53" y="0"></tspan><tspan x="58.65" y="0"></tspan></text><path class="cls-5" d="M159,530.8s-30,15.1-30.1,38" transform="translate(31.28 22.46)"/><line class="cls-5" x1="746.88" y1="753.86" x2="682.58" y2="753.86"/><text class="cls-2" transform="translate(752.03 759.01)">huesos</text><path class="cls-5" d="M721.5,654.8s-26.8-35.7-73.1-27.3" transform="translate(31.28 22.46)"/><text class="cls-2" transform="translate(752.03 694.27)">músculos</text><path class="cls-5" d="M575.9,510s60.3,3,96.7,40.6" transform="translate(31.28 22.46)"/><text class="cls-2" transform="translate(701.5 587.12)">Horno atómico</text><text class="cls-2" transform="translate(662.53 288.36)">Bolsas de uranio</text><path class="cls-5" d="M709.8,34.6s6.9-13.9,26.8-13.9" transform="translate(31.28 22.46)"/><path class="cls-5" d="M480.2,79c41.2,11.1,76.8,58.6,93.7,98.3" transform="translate(31.28 22.46)"/><text class="cls-2" transform="translate(421.21 104.4)">Inductor de calor</text><line class="cls-5" x1="605.68" y1="328.66" x2="715.38" y2="328.66"/><text class="cls-2" transform="translate(719 332.62)">Esternón</text><path class="cls-5" d="M594.7,288.2s35.7,5.9,49.5-16.8" transform="translate(31.28 22.46)"/></svg>