<svg id="Layer_1" data-name="Layer 1" xmlns="http://www.w3.org/2000/svg" xmlns:xlink="http://www.w3.org/1999/xlink" viewBox="0 0 468.63 532.82"><defs><style>.cls-1,.cls-2,.cls-5,.cls-8{isolation:isolate;}.cls-2,.cls-8{font-size:15px;}.cls-2,.cls-5{font-family:Roboto-Regular, Roboto;}.cls-3{letter-spacing:-0.01em;}.cls-4{letter-spacing:-0.01em;}.cls-5{font-size:14px;}.cls-11,.cls-6{fill:none;}.cls-6{stroke:#000;stroke-miterlimit:10;stroke-width:0.5px;}.cls-7{letter-spacing:-0.01em;}.cls-8{font-family:Roboto-MediumItalic, Roboto;font-weight:500;font-style:italic;}.cls-9{letter-spacing:-0.01em;}.cls-10{letter-spacing:-0.01em;}</style></defs><g id="godzilladibu02.psd"><image id="godzilladibu02" class="cls-1" width="850" height="978" transform="translate(15.96) rotate(1.86) scale(0.5)" xlink:href="DF9007709BA15FE0.png"/></g><image class="cls-1" width="600" height="558" transform="translate(325.47 69.8) scale(0.24)" xlink:href="DF9007709BA15FE1.png"/><image class="cls-1" width="413" height="592" transform="translate(99.89 136.22) scale(0.24)" xlink:href="DF9007709BA15FE7.png"/><image class="cls-1" width="517" height="550" transform="translate(109.14 68.93) scale(0.24)" xlink:href="DF9007709BA15FE2.png"/><image class="cls-1" width="500" height="504" transform="translate(158.11 27.88) scale(0.24)" xlink:href="DF9007709BA15FE3.png"/><image class="cls-1" width="429" height="421" transform="translate(208.7 14.02) scale(0.24)" xlink:href="DF9007709BA15FEE.png"/><text class="cls-2" transform="translate(204.7 22.88)">Cerebro pequeño<tspan class="cls-3" x="17.35" y="0"></tspan><tspan x="22.46" y="0"></tspan><tspan class="cls-4" x="38.84" y="0"></tspan><tspan x="43.95" y="0"></tspan></text><text class="cls-5" transform="translate(362.43 127.36)">Respiración</text><text class="cls-5" transform="translate(362.43 145.36)">atómica</text><line class="cls-6" x1="307.15" y1="178.82" x2="373.95" y2="178.82"/><text class="cls-2" transform="translate(378.4 184.36)"><tspan class="cls-7" x="31.52" y="0"></tspan><tspan x="38.95" y="0">Corazón</tspan></text><text class="cls-2" transform="translate(352.56 258.76)">Pulmones</text><text class="cls-8" transform="translate(334.56 276.26)">Puede <tspan class="cls-3" x="45.98" y="0">r</tspan><tspan x="51.11" y="0">espirar</tspan></text><text class="cls-8" transform="translate(334.56 294.26)">bajo el agua</text><path class="cls-6" d="M295.2,218.3s11.7,37.4,42.6,44.7" transform="translate(11.75 -9.98)"/><path class="cls-6" d="M88.1,163.9s9.1,40.6,48.9,40.6" transform="translate(11.75 -9.98)"/><text class="cls-2" transform="translate(18.11 114.09)"><tspan class="cls-3" x="40.32" y="0"></tspan><tspan x="45.43" y="0">descarga eléctrica</tspan></text><text class="cls-2" transform="translate(18.11 132.09)">a <tspan class="cls-9" x="22.28" y="0"></tspan><tspan class="cls-10" x="30.42" y="0"></tspan><tspan x="37.87" y="0">través de</tspan></text><text class="cls-2" transform="translate(18.11 150.09)">placas dorsales</text><path class="cls-6" d="M97.4,257.6s-24.1,6.1-24.5,31.7" transform="translate(11.75 -9.98)"/><text class="cls-2" transform="translate(374.18 381.08)">Huesos</text><text class="cls-2" transform="translate(366.18 354.65)">Músculos</text><path class="cls-6" d="M279.3,281.7S337,397.1,278.5,476" transform="translate(11.75 -9.98)"/><text class="cls-2" transform="translate(239.1 472.84)">Horno</text><text class="cls-2" transform="translate(239.1 490.84)">atómico</text><text class="cls-2" transform="translate(73.99 65)">Bolsas de uranio</text><path class="cls-6" d="M305.8,27.83s11.65-3.19,21.3,11.27" transform="translate(11.75 -9.98)"/><path class="cls-6" d="M208.9,41.7c31.4,5.9,60.1,31.3,76.9,70.9" transform="translate(11.75 -9.98)"/><text class="cls-2" transform="translate(114.35 38.7)">Inductor de calor</text><line class="cls-6" x1="296.05" y1="162.12" x2="338.95" y2="162.12"/><text class="cls-2" transform="translate(343.59 166.02)">Esternón</text><path class="cls-6" d="M289.9,150S249.2,75.2,184.2,71.1" transform="translate(11.75 -9.98)"/><path class="cls-6" d="M322.4,328.9s30.1-1.6,42.3,22" transform="translate(11.75 -9.98)"/><line class="cls-6" x1="334.95" y1="376.42" x2="369.85" y2="376.42"/><rect class="cls-11" x="11.75" y="315.82" width="100" height="217"/><g class="cls-1"><text class="cls-8" transform="translate(11.75 327.27)">La textura de </text><text class="cls-8" transform="translate(11.75 345.27)">la piel fue </text><text class="cls-8" transform="translate(11.75 363.27)">inspirada en</text><text class="cls-8" transform="translate(11.75 381.27)">las cicatrices </text><text class="cls-8" transform="translate(11.75 399.27)">de queloides </text><text class="cls-8" transform="translate(11.75 417.27)">de los</text><text class="cls-8" transform="translate(11.75 435.27)"> </text><text class="cls-8" transform="translate(11.75 432.27)">sobrevivientes<tspan class="cls-3" x="24.79" y="0"></tspan><tspan class="cls-10" x="29.92" y="0"></tspan><tspan x="37.68" y="0"></tspan></text><text class="cls-8" transform="translate(11.75 448.27)">de Hi<tspan class="cls-4" x="34.54" y="0">r</tspan><tspan x="39.66" y="0">oshima</tspan></text></g><rect class="cls-11" x="11.35" y="243.12" width="80.3" height="260"/><g class="cls-1"><text class="cls-2" transform="translate(11.31 254.58)">Escamas </text><text class="cls-2" transform="translate(11.31 272.58)">de carbono </text><text class="cls-2" transform="translate(11.31 290.58)">que cubren<tspan class="cls-3" x="53.53" y="0"></tspan><tspan x="58.65" y="0"> </tspan></text><text class="cls-2" transform="translate(11.31 308.58)">el cuerpo</text></g></svg>