<svg id="Layer_1" data-name="Layer 1" xmlns="http://www.w3.org/2000/svg" xmlns:xlink="http://www.w3.org/1999/xlink" viewBox="0 0 470.02 451.52"><defs><style>.cls-1{opacity:0.8;}.cls-10,.cls-11,.cls-12,.cls-15,.cls-16,.cls-18,.cls-19,.cls-2,.cls-21,.cls-22,.cls-23,.cls-24,.cls-27,.cls-3,.cls-5,.cls-6{isolation:isolate;}.cls-10,.cls-3{font-size:23px;font-family:Roboto-Bold, Roboto;font-weight:700;}.cls-14,.cls-20,.cls-26,.cls-28,.cls-29,.cls-4{fill:none;}.cls-11,.cls-12,.cls-23,.cls-24,.cls-5,.cls-6{font-size:15px;}.cls-11,.cls-15,.cls-16,.cls-18,.cls-19,.cls-21,.cls-22,.cls-23,.cls-5{font-family:Roboto-MediumItalic, Roboto;font-weight:500;font-style:italic;}.cls-24,.cls-6{font-family:Roboto-Regular, Roboto;}.cls-7{letter-spacing:0.01em;}.cls-8{letter-spacing:0.01em;}.cls-9{letter-spacing:0em;}.cls-10,.cls-11,.cls-12,.cls-18,.cls-19{fill:#58595b;}.cls-12{font-family:Roboto-Light, Roboto;font-weight:300;}.cls-13{letter-spacing:-0.01em;}.cls-14{stroke:#58595b;}.cls-14,.cls-20,.cls-26{stroke-miterlimit:10;stroke-width:0.5px;}.cls-15,.cls-18,.cls-21{font-size:22px;}.cls-16,.cls-19,.cls-22{font-size:10px;}.cls-17{letter-spacing:-0.01em;}.cls-20{stroke:#000;}.cls-21,.cls-22,.cls-23,.cls-24{fill:#62b5d7;}.cls-25{letter-spacing:0.01em;}.cls-26,.cls-28,.cls-29{stroke:#62b5d7;}.cls-27{fill:#fff;stroke:#fff;stroke-width:3px;opacity:0.5;}.cls-27,.cls-28,.cls-29{stroke-linecap:round;stroke-linejoin:round;}.cls-29{stroke-dasharray:0 2.9;}</style></defs><g id="godzilladibu01.psd" class="cls-1"><image id="godzilladibu01" class="cls-2" width="800" height="679" transform="matrix(-0.45, 0, 0, 0.45, 470.02, 145.5)" xlink:href="186220D072C217AB.png"/></g><g id="godzilla.psd"><image id="godzilla" class="cls-2" width="800" height="593" transform="translate(0 114.46) scale(0.56)" xlink:href="186220D072C217A9.png"/></g><text class="cls-3" transform="translate(20.54 19.68)">2019</text><rect class="cls-4" x="19.51" y="32.6" width="213" height="52.5"/><text class="cls-5" transform="translate(19.55 43.81)">Godzilla: King of the Monsters </text><text class="cls-6" transform="translate(20.55 61.81)">del estudio Legenda<tspan class="cls-7" x="135.49" y="0">r</tspan><tspan x="140.87" y="0">y Films y </tspan></text><text class="cls-6" transform="translate(19.55 79.81)">dirigido por Michael Doughe<tspan class="cls-8" x="189.35" y="0">r</tspan><tspan class="cls-9" x="194.73" y="0">ty</tspan></text><text class="cls-10" transform="translate(375.1 19.68)">2014</text><rect class="cls-4" x="271.21" y="32.6" width="167.4" height="51.5"/><text class="cls-11" transform="translate(297.68 43.81)">Godzilla </text><text class="cls-12" transform="translate(354.08 43.81)">del estudio</text><text class="cls-12" transform="translate(300.5 61.81)">Legenda<tspan class="cls-7" x="56.81" y="0">r</tspan><tspan x="62.07" y="0">y Films y </tspan></text><text class="cls-12" transform="translate(328.94 79.81)">dirigido por </text><text class="cls-12" transform="translate(312.29 96.13)">Ga<tspan class="cls-13" x="18.39" y="0">r</tspan><tspan x="23.37" y="0">eth </tspan><tspan class="cls-13" x="47.92" y="0">E</tspan><tspan x="56.04" y="0">dwa</tspan><tspan class="cls-13" x="83.81" y="0">r</tspan><tspan x="88.79" y="0">ds</tspan></text><line class="cls-14" x1="345.01" y1="147.9" x2="438.31" y2="147.9"/><text class="cls-15" transform="translate(19.55 111.99)">119.8</text><text class="cls-16" transform="translate(73.65 111.99)"> </text><text class="cls-5" transform="translate(76.11 111.99)">met<tspan class="cls-17" x="26.03" y="0">r</tspan><tspan x="31.15" y="0">os</tspan></text><text class="cls-18" transform="translate(354.15 143.71)">108</text><text class="cls-19" transform="translate(390.44 143.71)"> </text><text class="cls-11" transform="translate(392.89 143.71)">met<tspan class="cls-17" x="26.03" y="0">r</tspan><tspan x="31.15" y="0">os</tspan></text><line class="cls-20" x1="19.81" y1="117" x2="128.31" y2="117"/><text class="cls-21" transform="translate(213.91 143.71)">93</text><text class="cls-22" transform="translate(238.1 143.71)"> </text><text class="cls-23" transform="translate(240.55 143.71)">met<tspan class="cls-17" x="26.03" y="0">r</tspan><tspan x="31.15" y="0">os</tspan></text><text class="cls-24" transform="translate(195.42 119.43)">Estatua de la libe<tspan class="cls-25" x="114.77" y="0">r</tspan><tspan x="120.15" y="0">tad</tspan></text><line class="cls-26" x1="232.71" y1="186" x2="277.11" y2="186"/><path class="cls-27" d="M287.6,433.1V421.9h-.8v-.7H276.1l-4.5-10.5-.9-.8v-1.4a1.43,1.43,0,0,0,1.1-1.6,1.15,1.15,0,0,0-1.1-1.3v-2.4h.8l1.3-.9v-5h-2.2V401h-2.1v-5.4l-1.6-2.4V387h1v-1h-1.3s-.8-7.6-.8-9.8v-7.7l.3-.3v-1h.9v-.9h-1v-2.1h1v-.8h1.9v-2h-1.7v-3.3h.7v-2.2h-2v-.5h-.7v-1.6h-.7v-3.7h1.1v-3l-3.7-1.6h-1.1v-5.9s-2-.2-2,0l-.4-.1s0-.3-.2-.4l-1.1-.5s-.5-1.2-.7-1.6-.3-12.5-.3-12.5a3.7,3.7,0,0,1,.4-1.5c.3-.3.3-1.4.3-1.5s.3-.3.4-.3.8-.1.9-.3a16,16,0,0,0,0-2.2c-.1-.4-.2-1.8-.3-2.1s-.1-5.2-.1-5.2a6.39,6.39,0,0,0,.4-1,3.33,3.33,0,0,0,0-1,12.31,12.31,0,0,1-.2-2c0-.4,1-1,1.2-1.5a27.9,27.9,0,0,0,.2-5,22.6,22.6,0,0,1-.1-2.6,55,55,0,0,0-.2-6.9c-.2-1-.6-3.9-.6-4.4v-.8a2,2,0,0,0,.8-.3c.3-.1.6-.8.7-1.1a5.27,5.27,0,0,1,.5-1.5,13.89,13.89,0,0,0,.4-2.3l3.2,2,4.7-7.8s.7,0,.9-.2.5-.3.7-.5a4.45,4.45,0,0,0,.5-.8s.5.2.6-.3.1-.8.3-1a2.89,2.89,0,0,0,.6-1,3.19,3.19,0,0,0,.2-1.6c0-.3-.3-1.2-.3-1.5a6.11,6.11,0,0,1,.3-1.3c.2-.3,1.3-2.1,1.3-2.1l.4-1.8-9.7-5.2-6,10.5-.6-1.8a21.13,21.13,0,0,0-.8-2.2,11.4,11.4,0,0,1-1-1.9c-.2-.7-.3-3.5-.4-4.3a6.47,6.47,0,0,1-.3-1,8.69,8.69,0,0,0-.3-2.5,22.11,22.11,0,0,0-1.4-2.4c-.2-.4-1.1-1.4-1.2-1.7s-.4-1.6-.5-2.1a4.89,4.89,0,0,1,.1-2.4,5.12,5.12,0,0,0,.6-2.2c0-.9-.3-1.4-.3-1.9a22.6,22.6,0,0,1-.1-2.6,9.27,9.27,0,0,1,.4-2.4,3.26,3.26,0,0,0,.3-1l7.9-.6v-.6l-8.1.1a3.14,3.14,0,0,0-.4-1.5l7-3.6-.1-.4-7.8,2.4s-.8-.7-1.2-1l4.1-4.7-.4-.2-5.9,4.1-1.2-.1-1-6.2h-.5l-1.1,6.2-1.3.1-5.9-4.1-.3.3,4.2,4.7a4.76,4.76,0,0,0-1.5,1.2l-3.9-1.4s-.2-2.6-.4-3.8-.6-4.1-.8-4.9a46.17,46.17,0,0,1-.2-5c.1-.3.2-.8.3-1.2s.1-2.3.2-3.2a3.19,3.19,0,0,0-.2-1.8,9.75,9.75,0,0,0-.6-1.4c-.2-.2-.5-.4-.4-.7a5,5,0,0,0,.4-1.3,4.48,4.48,0,0,1,.1-1.2,5.94,5.94,0,0,1,.4-.8,2.07,2.07,0,0,1,.6-.2l.3-.3h1.1v-.4h.5v-.7h-.5v-2l.4-.3V201h-3.5v-2.3a4,4,0,0,0,1-2,4.91,4.91,0,0,0-.4-2.6,14.19,14.19,0,0,1-1.2-3.8s-.5,2.1-1.1,2.5-.6.2-.7-.4a2.41,2.41,0,0,0-.3-.8,1.34,1.34,0,0,0-1,1.4c-.1,1.1.2,1.5,0,1.8a.71.71,0,0,1-.6.4,5.07,5.07,0,0,0,.2,2.3,2.53,2.53,0,0,0,1,1.1V201h-3.3v.5l.2.2v2h-.5v.7h.6l.2.4h1l.1.3h.7v1.8h.5V208s-.6-.1-.6.4a2,2,0,0,0,.1,1s-.5.1-.6.5a3.76,3.76,0,0,0,0,1.1s-.5.3-.4.7a4.78,4.78,0,0,0,.6,1.1,5.23,5.23,0,0,0,.1,2.1l.7,1.4v5.6a5.34,5.34,0,0,0-.4,1.1c-.1.6-.3,3.4-.4,4.3a12.18,12.18,0,0,0,0,2.7c.1.8.7,3.1.8,3.7a22.74,22.74,0,0,1-.1,2.9,13.84,13.84,0,0,1-1.4,2.1,20.47,20.47,0,0,0-2.9,5,6.57,6.57,0,0,0,.1,3.5,7.25,7.25,0,0,0,.9,1.1,5.29,5.29,0,0,0-.2,2c.2.5,1.1.7,1.1.7s.7.6.7,1.1-.2,3.6-.3,4.1a4.58,4.58,0,0,0,.1,1.7c.1.3-.5.7-.5,1.3s.6,1.4.6,1.6a7.35,7.35,0,0,0,.6,1.8,5.11,5.11,0,0,1,.3,2.1c-.1.6,0,6.4,0,6.4s-1.7,1.9-1.8,2.7a1.78,1.78,0,0,0,.8,2.2c.9.6,2.1.1,2.4.3a2.62,2.62,0,0,1,.6.8l-.1,3.6s-2.2,3.6-2.6,4.2a2.9,2.9,0,0,0-.7,2.5,1.7,1.7,0,0,0,1.5,1.5s.2,2.5.3,3.1a15,15,0,0,1,.4,2.4c.1.9.1,4.3.1,5.5s.1,3.1.1,3.4-.9,1-.9,1.8a2.21,2.21,0,0,0,.3,1.4,2.54,2.54,0,0,1,.2,1.2c0,.3-.1,2.5-.2,2.9a14.22,14.22,0,0,0-.7,2.8c0,.9.1,4,.1,5s.2,3.4.2,4a18.7,18.7,0,0,0-.2,2.7,17.77,17.77,0,0,0,.1,2.5,6,6,0,0,1,0,1.9c-.1.3-.6.1-.7.7s-.3,2.5-.3,2.5-1,1-1.3,1.4a15.62,15.62,0,0,0-1.3,1.9c-.3.6-.6,1.3-.8,1.6s-.1.9-.2,1.1-.2.8-.2.6-2,0-2,0v5.9h-1.1l-3.7,1.6v3H218v3.7h-.7v1.6h-.7v.5h-2v2.2h.7v3.3h-1.7v2h1.9v.8h1V366h-1v.9h.9v1l.3.3v7.7c0,2.1-.8,9.8-.8,9.8h-1.3v1.1h1V393l-1.6,2.4v5.4h-2.1v-3.7h-2.2v5l1.3.9h.8v2.4a1.24,1.24,0,0,0-1.1,1.3c0,1.3.7,1.6,1.1,1.6v1.4l-.9.8L206.4,421H195.7v.7h-.8v11.2m41-200.8,2.9,1,.1.6-.7.6h-2Zm3.4,8.7c-.2.2-.8.7-1,.9a4.05,4.05,0,0,0-.5.9c0,.2-.5.2-.4,0s-.1-2.3-.1-2.5a20.78,20.78,0,0,0,0-2.5,1.74,1.74,0,0,0-.4-.9s-.2-.6-.3-.8l1.7.1a3.39,3.39,0,0,1,.3.8,13,13,0,0,1,.3,1.3,7.57,7.57,0,0,0,.1,1.5c0,.2.4.5.4.6A1.49,1.49,0,0,1,239.3,240.8Z" transform="translate(17.31 -3.5)"/><path class="cls-28" d="M287.6,433.1V421.9h-.8v-.7H276.1l-4.5-10.5-.9-.8v-1.4a1.43,1.43,0,0,0,1.1-1.6,1.15,1.15,0,0,0-1.1-1.3v-2.4h.8l1.3-.9v-5h-2.2V401h-2.1v-5.4l-1.6-2.4V387h1v-1h-1.3s-.8-7.6-.8-9.8v-7.7l.3-.3v-1h.9v-.9h-1v-2.1h1v-.8h1.9v-2h-1.7v-3.3h.7v-2.2h-2v-.5h-.7v-1.6h-.7v-3.7h1.1v-3l-3.7-1.6h-1.1v-5.9s-2-.2-2,0l-.4-.1s0-.3-.2-.4l-1.1-.5s-.5-1.2-.7-1.6-.3-12.5-.3-12.5a3.7,3.7,0,0,1,.4-1.5c.3-.3.3-1.4.3-1.5s.3-.3.4-.3.8-.1.9-.3a16,16,0,0,0,0-2.2c-.1-.4-.2-1.8-.3-2.1s-.1-5.2-.1-5.2a6.39,6.39,0,0,0,.4-1,3.33,3.33,0,0,0,0-1,12.31,12.31,0,0,1-.2-2c0-.4,1-1,1.2-1.5a27.9,27.9,0,0,0,.2-5,22.6,22.6,0,0,1-.1-2.6,55,55,0,0,0-.2-6.9c-.2-1-.6-3.9-.6-4.4v-.8a2,2,0,0,0,.8-.3c.3-.1.6-.8.7-1.1a5.27,5.27,0,0,1,.5-1.5,13.89,13.89,0,0,0,.4-2.3l3.2,2,4.7-7.8s.7,0,.9-.2.5-.3.7-.5a4.45,4.45,0,0,0,.5-.8s.5.2.6-.3.1-.8.3-1a2.89,2.89,0,0,0,.6-1,3.19,3.19,0,0,0,.2-1.6c0-.3-.3-1.2-.3-1.5a6.11,6.11,0,0,1,.3-1.3c.2-.3,1.3-2.1,1.3-2.1l.4-1.8-9.7-5.2-6,10.5-.6-1.8a21.13,21.13,0,0,0-.8-2.2,11.4,11.4,0,0,1-1-1.9c-.2-.7-.3-3.5-.4-4.3a6.47,6.47,0,0,1-.3-1,8.69,8.69,0,0,0-.3-2.5,22.11,22.11,0,0,0-1.4-2.4c-.2-.4-1.1-1.4-1.2-1.7s-.4-1.6-.5-2.1a4.89,4.89,0,0,1,.1-2.4,5.12,5.12,0,0,0,.6-2.2c0-.9-.3-1.4-.3-1.9a22.6,22.6,0,0,1-.1-2.6,9.27,9.27,0,0,1,.4-2.4,3.26,3.26,0,0,0,.3-1l7.9-.6v-.6l-8.1.1a3.14,3.14,0,0,0-.4-1.5l7-3.6-.1-.4-7.8,2.4s-.8-.7-1.2-1l4.1-4.7-.4-.2-5.9,4.1-1.2-.1-1-6.2h-.5l-1.1,6.2-1.3.1-5.9-4.1-.3.3,4.2,4.7a4.76,4.76,0,0,0-1.5,1.2l-3.9-1.4s-.2-2.6-.4-3.8-.6-4.1-.8-4.9a46.17,46.17,0,0,1-.2-5c.1-.3.2-.8.3-1.2s.1-2.3.2-3.2a3.19,3.19,0,0,0-.2-1.8,9.75,9.75,0,0,0-.6-1.4c-.2-.2-.5-.4-.4-.7a5,5,0,0,0,.4-1.3,4.48,4.48,0,0,1,.1-1.2,5.94,5.94,0,0,1,.4-.8,2.07,2.07,0,0,1,.6-.2l.3-.3h1.1v-.4h.5v-.7h-.5v-2l.4-.3V201h-3.5v-2.3a4,4,0,0,0,1-2,4.91,4.91,0,0,0-.4-2.6,14.19,14.19,0,0,1-1.2-3.8s-.5,2.1-1.1,2.5-.6.2-.7-.4a2.41,2.41,0,0,0-.3-.8,1.34,1.34,0,0,0-1,1.4c-.1,1.1.2,1.5,0,1.8a.71.71,0,0,1-.6.4,5.07,5.07,0,0,0,.2,2.3,2.53,2.53,0,0,0,1,1.1V201h-3.3v.5l.2.2v2h-.5v.7h.6l.2.4h1l.1.3h.7v1.8h.5V208s-.6-.1-.6.4a2,2,0,0,0,.1,1s-.5.1-.6.5a3.76,3.76,0,0,0,0,1.1s-.5.3-.4.7a4.78,4.78,0,0,0,.6,1.1,5.23,5.23,0,0,0,.1,2.1l.7,1.4v5.6a5.34,5.34,0,0,0-.4,1.1c-.1.6-.3,3.4-.4,4.3a12.18,12.18,0,0,0,0,2.7c.1.8.7,3.1.8,3.7a22.74,22.74,0,0,1-.1,2.9,13.84,13.84,0,0,1-1.4,2.1,20.47,20.47,0,0,0-2.9,5,6.57,6.57,0,0,0,.1,3.5,7.25,7.25,0,0,0,.9,1.1,5.29,5.29,0,0,0-.2,2c.2.5,1.1.7,1.1.7s.7.6.7,1.1-.2,3.6-.3,4.1a4.58,4.58,0,0,0,.1,1.7c.1.3-.5.7-.5,1.3s.6,1.4.6,1.6a7.35,7.35,0,0,0,.6,1.8,5.11,5.11,0,0,1,.3,2.1c-.1.6,0,6.4,0,6.4s-1.7,1.9-1.8,2.7a1.78,1.78,0,0,0,.8,2.2c.9.6,2.1.1,2.4.3a2.62,2.62,0,0,1,.6.8l-.1,3.6s-2.2,3.6-2.6,4.2a2.9,2.9,0,0,0-.7,2.5,1.7,1.7,0,0,0,1.5,1.5s.2,2.5.3,3.1a15,15,0,0,1,.4,2.4c.1.9.1,4.3.1,5.5s.1,3.1.1,3.4-.9,1-.9,1.8a2.21,2.21,0,0,0,.3,1.4,2.54,2.54,0,0,1,.2,1.2c0,.3-.1,2.5-.2,2.9a14.22,14.22,0,0,0-.7,2.8c0,.9.1,4,.1,5s.2,3.4.2,4a18.7,18.7,0,0,0-.2,2.7,17.77,17.77,0,0,0,.1,2.5,6,6,0,0,1,0,1.9c-.1.3-.6.1-.7.7s-.3,2.5-.3,2.5-1,1-1.3,1.4a15.62,15.62,0,0,0-1.3,1.9c-.3.6-.6,1.3-.8,1.6s-.1.9-.2,1.1-.2.8-.2.6-2,0-2,0v5.9h-1.1l-3.7,1.6v3H218v3.7h-.7v1.6h-.7v.5h-2v2.2h.7v3.3h-1.7v2h1.9v.8h1V366h-1v.9h.9v1l.3.3v7.7c0,2.1-.8,9.8-.8,9.8h-1.3v1.1h1V393l-1.6,2.4v5.4h-2.1v-3.7h-2.2v5l1.3.9h.8v2.4a1.24,1.24,0,0,0-1.1,1.3c0,1.3.7,1.6,1.1,1.6v1.4l-.9.8L206.4,421H195.7v.7h-.8v11.2m41-200.8,2.9,1,.1.6-.7.6h-2Zm3.4,8.7c-.2.2-.8.7-1,.9a4.05,4.05,0,0,0-.5.9c0,.2-.5.2-.4,0s-.1-2.3-.1-2.5a20.78,20.78,0,0,0,0-2.5,1.74,1.74,0,0,0-.4-.9s-.2-.6-.3-.8l1.7.1a3.39,3.39,0,0,1,.3.8,13,13,0,0,1,.3,1.3,7.57,7.57,0,0,0,.1,1.5c0,.2.4.5.4.6A1.49,1.49,0,0,1,239.3,240.8Z" transform="translate(17.31 -3.5)"/><line class="cls-28" x1="248.51" y1="148" x2="248.51" y2="148"/><line class="cls-29" x1="248.51" y1="150.9" x2="248.51" y2="181.4"/><line class="cls-28" x1="248.51" y1="182.8" x2="248.51" y2="182.8"/></svg>